<?xml version="1.0" encoding="utf-8"?>
<!-- Generator: Adobe Illustrator 15.0.0, SVG Export Plug-In . SVG Version: 6.00 Build 0)  -->
<!DOCTYPE svg PUBLIC "-//W3C//DTD SVG 1.1//EN" "http://www.w3.org/Graphics/SVG/1.1/DTD/svg11.dtd">
<svg version="1.1" id="Layer_1" xmlns="http://www.w3.org/2000/svg" xmlns:xlink="http://www.w3.org/1999/xlink" x="0px" y="0px"
	 width="512px" height="512px" viewBox="0 0 512 512" enable-background="new 0 0 512 512" xml:space="preserve">
<path id="linkedin-circle-outline-icon" fill="#FFFFFF" d="M256.417,90c44.34,0,86.026,17.267,117.38,48.62
	c31.354,31.354,48.62,73.04,48.62,117.38s-17.267,86.025-48.62,117.38c-31.354,31.354-73.04,48.62-117.38,48.62
	s-86.026-17.268-117.38-48.62c-31.354-31.354-48.62-73.04-48.62-117.38s17.267-86.026,48.62-117.38
	C170.391,107.267,212.077,90,256.417,90 M256.417,50c-113.771,0-206,92.229-206,206c0,113.771,92.229,206,206,206
	c113.771,0,206-92.229,206-206C462.417,142.229,370.188,50,256.417,50L256.417,50z M213.777,175.765
	c0,12.657-10.179,22.918-22.733,22.918c-12.556,0-22.734-10.261-22.734-22.918c0-12.658,10.179-22.918,22.734-22.918
	S213.777,163.107,213.777,175.765z M210.449,214.949h-38.443v124.205h38.443V214.949z M271.904,214.949h-36.874v124.205h36.874
	c0,0,0-46.069,0-65.198c0-17.467,8.039-27.863,23.428-27.863c14.14,0,20.932,9.982,20.932,27.863c0,17.882,0,65.198,0,65.198h38.26
	c0,0,0-45.377,0-78.646c0-33.268-18.854-49.349-45.19-49.349s-37.429,20.517-37.429,20.517V214.949L271.904,214.949z"/>
</svg>
